<svg xmlns="http://www.w3.org/2000/svg" version="1.0" preserveAspectRatio="xMidYMid meet" viewBox="89.33 63.91 332.14 383.17"><g transform="translate(0.000000,512.000000) scale(0.100000,-0.100000)" fill="#000000" stroke="none"><path d="M3159 4382 c-85 -55 -246 -159 -359 -231 -271 -175 -232 -178 -500 38 -222 179 -234 186 -282 177 -74 -14 -116 -99 -83 -169 18 -39 10 -35 355 -197 202 -95 229 -104 294 -97 47 4 760 315 834 363 61 40 64 132 6 183 -60 53 -86 46 -265 -67z"></path><path d="M2390 3833 c-445 -19 -950 -123 -1130 -231 -260 -158 -328 -360 -362 -1080 -25 -547 54 -1298 158 -1505 76 -148 217 -233 461 -277 656 -118 1334 -121 2016 -9 267 43 341 73 443 176 118 120 169 317 226 863 17 168 17 832 0 1000 -57 552 -99 664 -301 802 -206 142 -959 284 -1406 266 -22 -1 -69 -3 -105 -5z m400 -249 c143 -14 236 -37 278 -67 19 -15 14 -51 -13 -92 -36 -52 -79 -141 -99 -203 -10 -29 -25 -56 -34 -62 -37 -21 -42 -27 -36 -44 5 -13 9 -14 20 -5 8 7 17 9 21 5 3 -3 1 -6 -5 -6 -7 0 -12 -5 -12 -10 0 -6 3 -9 8 -9 24 4 37 -1 23 -10 -13 -8 -13 -12 0 -28 13 -16 12 -17 -3 -5 -11 9 -18 10 -23 2 -3 -5 -1 -10 4 -10 6 0 10 -3 9 -7 -3 -16 15 -43 25 -36 6 3 7 1 3 -5 -4 -6 1 -24 11 -39 10 -15 12 -24 6 -20 -15 10 -16 2 -4 -22 5 -9 12 -57 15 -107 3 -49 9 -120 14 -159 5 -38 8 -110 7 -160 -1 -49 2 -93 7 -96 13 -8 27 -159 14 -152 -5 4 -7 -7 -3 -28 5 -24 4 -30 -3 -19 -8 13 -10 13 -10 -2 0 -9 -7 -23 -15 -32 -9 -9 -11 -17 -5 -21 16 -10 12 -23 -7 -21 -10 0 -18 -6 -18 -14 0 -8 -4 -21 -8 -27 -5 -9 -2 -13 9 -13 11 0 15 6 11 20 -3 11 0 23 5 27 7 3 8 1 4 -5 -4 -7 -4 -12 1 -13 4 0 16 -2 26 -4 9 -2 15 1 11 6 -11 18 25 20 50 4 14 -10 26 -13 26 -9 0 11 64 -58 86 -92 31 -47 -9 -87 -156 -156 -140 -67 -270 -92 -465 -93 -255 0 -392 34 -616 155 -72 38 -132 70 -135 70 -8 0 -44 35 -44 43 0 26 200 235 228 238 4 0 15 2 24 4 29 5 61 -64 62 -135 1 -31 4 -35 28 -35 17 -1 35 -11 48 -28 12 -15 27 -27 33 -27 7 0 1 9 -13 19 -21 17 -22 21 -10 36 7 9 9 15 4 13 -13 -4 -59 30 -51 39 4 3 -3 17 -15 30 -31 33 -30 249 0 369 6 21 10 57 10 79 -1 23 3 39 9 38 6 -1 14 4 17 12 3 10 0 12 -11 8 -20 -8 -11 100 10 125 9 11 9 16 1 19 -18 6 -4 132 17 167 10 17 16 40 13 52 -4 14 0 23 10 27 9 4 16 11 16 18 0 6 -7 9 -15 5 -20 -7 -19 -3 5 19 20 18 21 18 14 0 -6 -14 -4 -16 6 -10 8 5 11 4 6 -3 -3 -6 -1 -14 6 -18 7 -4 10 -4 6 0 -4 5 -3 19 2 32 9 22 7 24 -23 24 -45 0 -67 18 -112 92 -21 35 -69 103 -107 153 -86 113 -87 110 22 160 20 10 107 25 200 35 91 11 181 21 200 23 85 9 237 6 380 -9z m-1179 -177 c260 -89 399 -278 399 -541 -1 -481 -378 -821 -822 -742 -81 15 -172 54 -199 86 -9 11 -20 16 -25 12 -4 -4 16 20 44 53 29 33 55 70 59 82 3 13 10 23 15 23 13 0 5 100 -16 200 -34 163 -20 289 58 497 48 128 53 162 35 257 -12 69 -15 65 69 88 101 27 281 20 383 -15z m2094 -75 c100 -49 226 -115 278 -146 l96 -57 -20 -33 c-32 -55 -39 -92 -28 -154 6 -31 14 -125 18 -207 l7 -150 43 -55 43 -54 -24 -18 c-130 -102 -483 -304 -568 -326 -176 -44 -296 2 -366 139 -37 73 -44 157 -51 551 -6 387 -4 411 46 486 57 87 143 125 265 118 75 -4 87 -8 261 -94z m-1528 -219 c-4 -3 -10 -3 -14 0 -3 4 0 7 7 7 7 0 10 -3 7 -7z m783 -3 c0 -5 -2 -10 -4 -10 -3 0 -8 5 -11 10 -3 6 -1 10 4 10 6 0 11 -4 11 -10z m0 -45 c0 -3 -2 -5 -5 -5 -3 0 -5 2 -5 5 0 3 2 5 5 5 3 0 5 -2 5 -5z m-10 -45 c0 -5 -2 -10 -4 -10 -3 0 -8 5 -11 10 -3 6 -1 10 4 10 6 0 11 -4 11 -10z m67 -617 c-4 -3 -7 0 -7 7 0 7 3 10 7 7 3 -4 3 -10 0 -14z m-917 -238 c0 -3 -2 -5 -5 -5 -3 0 -5 2 -5 5 0 3 2 5 5 5 3 0 5 -2 5 -5z m932 -4 c6 10 7 6 2 -11 -13 -48 -32 -66 -29 -28 4 48 6 55 12 39 5 -11 7 -11 15 0z m-921 -18 c-11 -4 -7 -12 15 -32 16 -14 25 -23 19 -20 -5 4 -19 5 -31 4 -17 -1 -21 4 -22 27 0 20 4 28 16 27 13 0 14 -2 3 -6z m1809 -54 c0 -6 9 -9 20 -6 50 13 -6 -616 -74 -833 -56 -179 -98 -207 -385 -256 -743 -127 -1977 -70 -2159 100 -84 77 -139 310 -149 629 l-6 177 41 0 c23 0 47 7 56 15 16 16 116 22 116 6 0 -4 41 -2 91 6 130 21 133 13 44 -110 -56 -76 -73 -134 -56 -194 45 -170 386 -440 653 -517 440 -127 933 -58 1238 173 220 166 308 286 298 405 -4 51 -11 69 -63 159 -30 53 -22 77 29 93 47 15 106 47 106 58 0 11 173 106 192 106 5 0 8 -5 8 -11z m-2107 -382 c379 -309 1092 -315 1471 -12 76 60 112 69 146 35 40 -40 28 -83 -40 -139 -397 -331 -1141 -357 -1595 -55 -128 85 -161 140 -113 191 33 35 70 30 131 -20z"></path><path d="M2240 3188 c0 -5 19 -9 43 -9 23 -1 34 -3 25 -6 -10 -2 -18 -11 -18 -19 0 -8 -9 -14 -19 -14 -10 0 -22 -7 -25 -16 -9 -22 -8 -23 17 -17 28 7 48 23 42 33 -15 24 64 54 84 32 12 -12 10 -13 -16 -8 -19 5 -34 2 -41 -6 -10 -13 43 -14 351 -5 48 1 87 -2 87 -6 0 -5 4 -6 10 -2 5 3 18 -2 29 -12 31 -29 75 -58 84 -55 11 3 8 -13 -5 -27 -11 -11 -9 -11 9 0 16 10 19 16 11 26 -5 7 -14 11 -18 8 -9 -6 -20 19 -20 45 0 11 -9 24 -21 30 -20 11 -20 11 -3 -15 25 -38 12 -39 -27 -3 -19 17 -29 28 -22 24 6 -3 15 -1 19 5 7 12 -45 6 -83 -8 -11 -4 -14 -2 -9 5 5 9 -36 13 -161 14 l-168 2 160 7 c148 5 142 6 -77 5 -131 -1 -238 -4 -238 -8z m90 -3 c0 -3 -2 -5 -5 -5 -3 0 -5 2 -5 5 0 3 2 5 5 5 3 0 5 -2 5 -5z m-43 -62 c-4 -3 -10 -3 -14 0 -3 4 0 7 7 7 7 0 10 -3 7 -7z"></path><path d="M2783 3193 c4 -3 10 -3 14 0 3 4 0 7 -7 7 -7 0 -10 -3 -7 -7z"></path><path d="M2813 3193 c4 -3 10 -3 14 0 3 4 0 7 -7 7 -7 0 -10 -3 -7 -7z"></path><path d="M2856 3186 c10 -8 21 -12 24 -10 5 6 -21 24 -34 24 -6 0 -1 -6 10 -14z"></path><path d="M2748 3183 c7 -3 16 -2 19 1 4 3 -2 6 -13 5 -11 0 -14 -3 -6 -6z"></path><path d="M2248 3153 c7 -3 16 -2 19 1 4 3 -2 6 -13 5 -11 0 -14 -3 -6 -6z"></path><path d="M2305 3100 c3 -5 8 -10 11 -10 3 0 2 5 -1 10 -3 6 -8 10 -11 10 -3 0 -2 -4 1 -10z"></path><path d="M2240 3085 c0 -3 2 -5 5 -5 3 0 5 2 5 5 0 3 -2 5 -5 5 -3 0 -5 -2 -5 -5z"></path><path d="M2810 3085 c0 -3 2 -5 5 -5 3 0 5 2 5 5 0 3 -2 5 -5 5 -3 0 -5 -2 -5 -5z"></path><path d="M2840 3085 c0 -3 2 -5 5 -5 3 0 5 2 5 5 0 3 -2 5 -5 5 -3 0 -5 -2 -5 -5z"></path><path d="M2920 3085 c0 -3 2 -5 5 -5 3 0 5 2 5 5 0 3 -2 5 -5 5 -3 0 -5 -2 -5 -5z"></path><path d="M2300 3075 c0 -3 2 -5 5 -5 3 0 5 2 5 5 0 3 -2 5 -5 5 -3 0 -5 -2 -5 -5z"></path><path d="M2190 3055 c-7 -9 -10 -18 -7 -22 4 -3 9 2 13 11 3 9 10 13 15 10 5 -3 6 -11 2 -17 -4 -7 0 -6 10 2 9 7 17 16 17 19 0 3 -3 2 -7 -1 -3 -4 -12 -2 -18 3 -9 7 -16 6 -25 -5z"></path><path d="M2280 3065 c0 -3 2 -5 5 -5 3 0 5 2 5 5 0 3 -2 5 -5 5 -3 0 -5 -2 -5 -5z"></path><path d="M2810 3065 c0 -3 2 -5 5 -5 3 0 5 2 5 5 0 3 -2 5 -5 5 -3 0 -5 -2 -5 -5z"></path><path d="M2860 3045 c0 -3 2 -5 5 -5 3 0 5 2 5 5 0 3 -2 5 -5 5 -3 0 -5 -2 -5 -5z"></path><path d="M2180 2996 c0 -2 7 -9 15 -16 9 -7 15 -8 15 -2 0 5 -7 12 -15 16 -8 3 -15 4 -15 2z"></path><path d="M2890 2995 c0 -3 2 -5 5 -5 3 0 5 2 5 5 0 3 -2 5 -5 5 -3 0 -5 -2 -5 -5z"></path><path d="M2230 2975 c0 -3 2 -5 5 -5 3 0 5 2 5 5 0 3 -2 5 -5 5 -3 0 -5 -2 -5 -5z"></path><path d="M2924 2968 c-4 -7 -3 -8 4 -4 12 7 16 16 8 16 -3 0 -8 -5 -12 -12z"></path><path d="M2180 2965 c0 -3 2 -5 5 -5 3 0 5 2 5 5 0 3 -2 5 -5 5 -3 0 -5 -2 -5 -5z"></path><path d="M2150 2950 c0 -7 3 -10 7 -7 3 4 3 10 0 14 -4 3 -7 0 -7 -7z"></path><path d="M2152 2860 c0 -14 2 -19 5 -12 2 6 2 18 0 25 -3 6 -5 1 -5 -13z"></path><path d="M2140 2625 c0 -3 2 -5 5 -5 3 0 5 2 5 5 0 3 -2 5 -5 5 -3 0 -5 -2 -5 -5z"></path><path d="M2981 2574 c0 -11 3 -14 6 -6 3 7 2 16 -1 19 -3 4 -6 -2 -5 -13z"></path><path d="M2130 2555 c0 -3 2 -5 5 -5 3 0 5 2 5 5 0 3 -2 5 -5 5 -3 0 -5 -2 -5 -5z"></path><path d="M2971 2514 c0 -11 3 -14 6 -6 3 7 2 16 -1 19 -3 4 -6 -2 -5 -13z"></path><path d="M2982 2440 c0 -14 2 -19 5 -12 2 6 2 18 0 25 -3 6 -5 1 -5 -13z"></path><path d="M3000 2345 c0 -3 2 -5 5 -5 3 0 5 2 5 5 0 3 -2 5 -5 5 -3 0 -5 -2 -5 -5z"></path><path d="M2980 2315 c0 -3 2 -5 5 -5 3 0 5 2 5 5 0 3 -2 5 -5 5 -3 0 -5 -2 -5 -5z"></path><path d="M3010 2310 c0 -7 3 -10 7 -7 3 4 3 10 0 14 -4 3 -7 0 -7 -7z"></path><path d="M3000 2275 c0 -3 2 -5 5 -5 3 0 5 2 5 5 0 3 -2 5 -5 5 -3 0 -5 -2 -5 -5z"></path><path d="M2130 2235 c0 -3 2 -5 5 -5 3 0 5 2 5 5 0 3 -2 5 -5 5 -3 0 -5 -2 -5 -5z"></path><path d="M3000 2235 c0 -3 2 -5 5 -5 3 0 5 2 5 5 0 3 -2 5 -5 5 -3 0 -5 -2 -5 -5z"></path><path d="M2150 2215 c0 -3 2 -5 5 -5 3 0 5 2 5 5 0 3 -2 5 -5 5 -3 0 -5 -2 -5 -5z"></path><path d="M2140 2185 c0 -3 2 -5 5 -5 3 0 5 2 5 5 0 3 -2 5 -5 5 -3 0 -5 -2 -5 -5z"></path><path d="M2980 2165 c0 -3 2 -5 5 -5 3 0 5 2 5 5 0 3 -2 5 -5 5 -3 0 -5 -2 -5 -5z"></path><path d="M2180 2115 c0 -3 2 -5 5 -5 3 0 5 2 5 5 0 3 -2 5 -5 5 -3 0 -5 -2 -5 -5z"></path><path d="M2890 2115 c0 -3 2 -5 5 -5 3 0 5 2 5 5 0 3 -2 5 -5 5 -3 0 -5 -2 -5 -5z"></path><path d="M2922 2070 c-7 -11 -17 -20 -23 -20 -5 0 -7 4 -4 10 3 6 -1 7 -10 3 -12 -4 -13 -8 -5 -13 21 -13 -8 -49 -40 -49 -9 0 -5 5 9 13 13 7 20 16 14 19 -5 3 -15 2 -23 -4 -21 -12 -33 -11 -24 3 4 7 3 8 -4 4 -6 -4 -9 -12 -6 -19 2 -7 -7 -13 -26 -14 -16 -1 -30 2 -30 7 0 6 -5 10 -11 10 -5 0 -7 -4 -4 -10 4 -7 -68 -10 -209 -10 -118 0 -216 4 -218 9 -1 4 -14 11 -28 15 -20 6 -22 5 -10 -4 12 -9 10 -11 -12 -7 -43 7 -33 -10 20 -33 71 -32 501 -31 565 2 23 11 45 26 49 32 5 8 11 7 20 -2 6 -6 16 -12 22 -12 5 0 1 7 -10 15 -22 17 -12 20 16 5 16 -9 18 -7 15 12 -3 13 -10 25 -15 26 -6 2 -3 10 7 18 14 11 15 13 3 14 -8 0 -21 -9 -28 -20z m21 -31 c4 -3 -6 -6 -22 -6 -27 0 -28 2 -13 13 9 7 19 9 22 6 3 -4 9 -9 13 -13z"></path><path d="M2170 2072 c0 -17 42 -34 54 -21 8 9 8 10 -1 5 -6 -3 -18 1 -26 9 -17 16 -27 19 -27 7z"></path><path d="M2810 2055 c0 -3 2 -5 5 -5 3 0 5 2 5 5 0 3 -2 5 -5 5 -3 0 -5 -2 -5 -5z"></path><path d="M2212 2033 c-6 -2 -10 -9 -6 -14 7 -12 -3 -11 -25 0 -12 7 -18 6 -18 -2 0 -18 38 -15 67 6 23 16 12 22 -18 10z"></path><path d="M2478 2013 c45 -2 119 -2 165 0 45 1 8 3 -83 3 -91 0 -128 -2 -82 -3z"></path><path d="M1324 2997 c-227 -109 -145 -450 108 -448 210 1 311 255 162 405 -68 67 -181 85 -270 43z"></path><path d="M3567 3006 c-107 -38 -172 -159 -147 -271 49 -221 351 -255 446 -50 90 193 -97 393 -299 321z"></path><path d="M3010 2140 c0 -7 3 -10 7 -7 3 4 3 10 0 14 -4 3 -7 0 -7 -7z"></path></g></svg>