<svg role="img" viewBox="0 0 24 24" xmlns="http://www.w3.org/2000/svg"><path d="M 16.677,0.013 C 16.587,0.043 16.595,0.031 16.256,0.522 C 15.942,0.978 15.848,1.114 15.727,1.282 C 15.655,1.384 15.579,1.495 15.557,1.529 C 15.537,1.562 15.505,1.61 15.485,1.635 C 15.465,1.66 15.387,1.771 15.311,1.882 C 14.664,2.82 13.941,3.866 13.903,3.913 C 13.883,3.938 13.849,3.986 13.829,4.019 C 13.793,4.074 13.468,4.544 13.192,4.938 C 13.136,5.021 12.946,5.294 12.771,5.547 C 12.197,6.379 12.139,6.464 12.098,6.511 C 12.078,6.538 12.06,6.564 12.06,6.57 C 12.06,6.575 11.994,6.672 11.912,6.787 C 11.832,6.902 11.714,7.069 11.652,7.158 C 11.41,7.511 11.309,7.654 11.209,7.799 C 11.153,7.882 11.041,8.044 10.959,8.161 C 10.879,8.277 10.761,8.447 10.697,8.537 C 10.63,8.627 10.578,8.705 10.578,8.71 C 10.578,8.716 10.524,8.791 10.46,8.882 C 10.242,9.185 10.042,9.489 9.919,9.703 C 9.851,9.819 9.797,9.92 9.797,9.925 C 9.797,9.931 9.773,9.98 9.745,10.035 C 9.607,10.3 9.429,10.81 9.347,11.163 C 9.225,11.702 9.184,12.364 9.247,12.824 C 9.283,13.092 9.311,13.262 9.339,13.362 C 9.351,13.407 9.369,13.477 9.381,13.521 C 9.391,13.565 9.409,13.62 9.417,13.645 C 9.425,13.67 9.449,13.737 9.467,13.795 C 9.523,13.973 9.679,14.314 9.809,14.546 C 10.232,15.296 10.869,15.946 11.642,16.423 C 11.944,16.609 12.313,16.792 12.581,16.893 C 12.703,16.939 12.809,16.978 12.872,17.002 C 13.06,17.075 13.528,17.188 13.853,17.241 C 14.408,17.331 14.606,17.336 17.177,17.336 C 19.144,17.336 19.601,17.331 19.791,17.31 C 20.119,17.274 20.402,17.206 20.648,17.105 C 20.718,17.077 20.78,17.054 20.786,17.054 C 20.79,17.054 20.9,16.994 21.029,16.918 C 21.485,16.653 21.834,16.3 22.052,15.886 C 22.164,15.673 22.2,15.574 22.324,15.12 C 22.386,14.895 22.477,14.567 22.527,14.387 C 22.577,14.207 22.653,13.933 22.695,13.777 C 22.737,13.622 22.823,13.311 22.885,13.089 C 22.945,12.864 23.019,12.603 23.047,12.506 C 23.075,12.409 23.107,12.297 23.115,12.258 C 23.137,12.17 23.338,11.439 23.408,11.199 C 23.436,11.102 23.468,10.99 23.476,10.95 C 23.486,10.911 23.54,10.711 23.596,10.508 C 23.714,10.083 23.856,9.563 23.927,9.309 C 24.039,8.899 24.023,8.532 23.876,8.126 C 23.832,8.002 23.65,7.677 23.59,7.612 C 23.574,7.594 23.506,7.518 23.44,7.446 C 23.376,7.371 23.27,7.273 23.204,7.225 C 23.139,7.175 23.081,7.131 23.075,7.126 C 23.049,7.098 22.809,6.967 22.685,6.91 C 22.495,6.826 22.411,6.797 22.234,6.755 C 21.886,6.672 21.818,6.67 19.485,6.668 L 17.286,6.668 L 17.298,6.601 C 17.304,6.566 17.318,6.504 17.328,6.465 C 17.338,6.427 17.36,6.328 17.376,6.245 C 17.394,6.162 17.422,6.031 17.44,5.953 C 17.458,5.875 17.476,5.792 17.482,5.768 C 17.486,5.743 17.498,5.692 17.508,5.653 C 17.518,5.614 17.54,5.51 17.558,5.423 C 17.576,5.335 17.616,5.15 17.648,5.008 C 17.68,4.867 17.76,4.501 17.828,4.196 C 17.894,3.89 17.958,3.604 17.966,3.56 C 17.976,3.516 17.994,3.433 18.009,3.375 C 18.021,3.316 18.041,3.237 18.049,3.198 C 18.059,3.159 18.081,3.055 18.099,2.968 C 18.117,2.88 18.145,2.749 18.163,2.677 C 18.197,2.529 18.211,2.472 18.257,2.244 C 18.275,2.156 18.313,1.988 18.339,1.871 C 18.417,1.531 18.405,1.236 18.301,0.985 C 18.083,0.457 17.56,0.084 16.947,0.021 C 16.887,0.013 16.815,0.005 16.787,0.001 C 16.759,-0.002 16.711,0.003 16.677,0.013 M 4.19,6.695 C 3.893,6.729 3.589,6.803 3.353,6.9 C 3.282,6.928 3.22,6.951 3.214,6.951 C 3.21,6.951 3.1,7.011 2.972,7.087 C 2.515,7.352 2.167,7.705 1.949,8.119 C 1.836,8.332 1.8,8.431 1.676,8.885 C 1.614,9.108 1.524,9.438 1.474,9.618 C 1.424,9.798 1.348,10.072 1.306,10.227 C 1.264,10.383 1.178,10.692 1.115,10.916 C 1.055,11.139 0.981,11.402 0.953,11.499 C 0.925,11.596 0.893,11.707 0.885,11.746 C 0.863,11.835 0.663,12.566 0.593,12.806 C 0.565,12.903 0.533,13.014 0.525,13.055 C 0.515,13.094 0.461,13.293 0.405,13.497 C 0.272,13.972 0.136,14.472 0.074,14.696 C -0.038,15.113 -0.024,15.469 0.124,15.879 C 0.168,16.003 0.35,16.328 0.411,16.393 C 0.427,16.411 0.495,16.487 0.561,16.559 C 0.625,16.633 0.731,16.732 0.797,16.78 C 0.861,16.829 0.919,16.874 0.925,16.879 C 0.951,16.907 1.192,17.038 1.316,17.094 C 1.506,17.179 1.59,17.207 1.766,17.25 C 2.115,17.333 2.183,17.335 4.516,17.336 L 6.715,17.336 L 6.703,17.403 C 6.697,17.439 6.683,17.501 6.673,17.539 C 6.663,17.578 6.641,17.677 6.625,17.76 C 6.607,17.843 6.579,17.974 6.561,18.052 C 6.543,18.129 6.525,18.212 6.519,18.237 C 6.515,18.262 6.503,18.313 6.493,18.352 C 6.483,18.391 6.461,18.493 6.443,18.581 C 6.425,18.668 6.385,18.855 6.353,18.997 C 6.321,19.138 6.24,19.503 6.172,19.809 C 6.106,20.115 6.042,20.401 6.034,20.445 C 6.024,20.489 6.006,20.572 5.992,20.63 C 5.98,20.689 5.96,20.768 5.952,20.807 C 5.942,20.846 5.92,20.948 5.902,21.036 C 5.884,21.123 5.856,21.255 5.838,21.328 C 5.804,21.476 5.79,21.533 5.744,21.761 C 5.726,21.847 5.688,22.017 5.662,22.133 C 5.584,22.474 5.596,22.769 5.7,23.02 C 5.894,23.492 6.337,23.843 6.873,23.958 C 7.054,23.997 7.254,24.011 7.32,23.991 C 7.414,23.961 7.404,23.975 7.745,23.483 C 8.059,23.027 8.153,22.891 8.273,22.723 C 8.345,22.621 8.421,22.509 8.443,22.476 C 8.464,22.442 8.496,22.395 8.516,22.37 C 8.536,22.345 8.614,22.234 8.69,22.123 C 9.337,21.185 10.06,20.139 10.098,20.092 C 10.118,20.067 10.152,20.019 10.172,19.986 C 10.208,19.931 10.506,19.498 10.809,19.067 C 11.197,18.509 11.398,18.212 11.387,18.2 C 11.383,18.193 11.331,18.163 11.273,18.135 C 10.933,17.969 10.673,17.82 10.368,17.619 C 10.042,17.402 9.921,17.308 9.547,16.976 C 8.958,16.455 8.512,15.906 8.159,15.275 C 7.999,14.987 7.875,14.735 7.875,14.698 C 7.875,14.683 7.867,14.668 7.857,14.662 C 7.847,14.657 7.835,14.634 7.829,14.613 C 7.823,14.59 7.799,14.525 7.775,14.466 C 7.624,14.106 7.494,13.587 7.41,13.018 C 7.376,12.787 7.376,11.806 7.41,11.587 C 7.468,11.216 7.478,11.158 7.496,11.057 C 7.64,10.314 7.903,9.618 8.295,8.938 C 8.488,8.606 8.488,8.602 8.696,8.302 C 8.778,8.186 8.89,8.023 8.946,7.94 C 9.004,7.857 9.092,7.732 9.142,7.661 C 9.195,7.59 9.237,7.53 9.237,7.525 C 9.237,7.52 9.289,7.442 9.353,7.354 C 9.521,7.119 9.683,6.884 9.743,6.79 L 9.797,6.711 L 9.491,6.69 C 9.058,6.66 4.458,6.665 4.19,6.695"/></svg>