<svg xmlns="http://www.w3.org/2000/svg" viewBox="185 192 646 720" width="323" height="360">
  <style>
    path, circle { fill: none; stroke: #000000; stroke-linecap: round; stroke-linejoin: round; }
    .letter { stroke-width: 28; }
    .cam-circle { stroke-width: 24; }
    .cam-icon { stroke-width: 18; }
  </style>
  <path class="letter" d="M354.64 446.62C354.64 446.62 354.64 433.64 354.42 431.44C354.149 424.864 352.797 418.377 350.42 412.24C347.915 405.989 343.769 400.53 338.42 396.44C332.786 392.371 326.255 389.716 319.38 388.7C310.952 387.314 302.421 386.645 293.88 386.7C284.502 386.696 275.138 387.446 265.88 388.94C256.613 390.5 249.653 391.707 245 392.56V685.62C245.154 697.653 242.966 709.601 238.56 720.8C234.44 731.066 227.172 739.763 217.8 745.64L201 756C201.44 773.2 207.04 787.507 217.8 798.92C228.56 810.333 243.407 816.027 262.34 816C275.653 816.202 288.82 813.212 300.74 807.28C312.172 801.442 322.108 793.052 329.78 782.76C338.144 771.388 344.378 758.595 348.18 745C352.657 729.058 354.832 712.558 354.64 696V643.82C336.008 614.308 326.12 580.121 326.12 545.22C326.12 510.319 336.008 476.132 354.64 446.62Z" />
  <path class="letter" d="M730.8 386.003C722.259 385.947 713.728 386.616 705.3 388.003C698.423 389.016 691.892 391.671 686.26 395.743C680.899 399.822 676.751 405.284 674.26 411.543C671.951 417.444 670.6 423.676 670.26 430.003C670.08 432.443 670 446.003 670 446.003C688.618 475.52 698.498 509.705 698.498 544.603C698.498 579.501 688.618 613.686 670 643.203V700.483C674.72 701.337 681.707 702.523 690.96 704.043C700.218 705.544 709.581 706.3 718.96 706.303C727.501 706.35 736.031 705.681 744.46 704.303C751.337 703.279 757.867 700.618 763.5 696.543C768.861 692.464 773.009 687.002 775.5 680.743C778.3 674.077 779.7 665.363 779.7 654.603V391.803C774.98 390.943 767.96 389.803 758.72 388.243C749.488 386.753 740.152 386.004 730.8 386.003Z" />
  <path class="letter" d="M724.28 356.96C739.011 356.96 753.411 352.592 765.659 344.408C777.907 336.224 787.453 324.592 793.091 310.982C798.728 297.373 800.203 282.397 797.329 267.95C794.455 253.502 787.362 240.231 776.945 229.815C766.529 219.399 753.258 212.305 738.81 209.431C724.363 206.557 709.387 208.032 695.778 213.669C682.168 219.307 670.536 228.853 662.352 241.101C654.168 253.349 649.8 267.749 649.8 282.48C649.8 302.233 657.647 321.178 671.615 335.145C685.582 349.113 704.527 356.96 724.28 356.96Z" />
  <path class="letter" d="M299.14 356.96C313.871 356.96 328.271 352.592 340.519 344.408C352.767 336.224 362.313 324.592 367.951 310.982C373.588 297.373 375.063 282.397 372.189 267.95C369.315 253.502 362.222 240.231 351.805 229.815C341.389 219.399 328.118 212.305 313.67 209.431C299.223 206.557 284.247 208.032 270.638 213.669C257.028 219.307 245.396 228.853 237.212 241.101C229.028 253.349 224.66 267.749 224.66 282.48C224.66 302.233 232.507 321.178 246.475 335.145C260.442 349.113 279.387 356.96 299.14 356.96Z" />
  <path class="letter" d="M582.54 394C552.631 380.051 519.257 375.284 486.638 380.303C454.02 385.322 423.622 399.901 399.29 422.196C374.957 444.491 357.782 473.5 349.937 505.557C342.091 537.613 343.928 571.275 355.215 602.288C366.501 633.3 386.731 660.269 413.345 679.784C439.959 699.299 471.762 710.484 504.733 711.924C537.704 713.363 570.361 704.994 598.575 687.873C626.789 670.753 649.293 645.65 663.24 615.74C672.503 595.882 677.763 574.393 678.721 552.502C679.678 530.611 676.314 508.745 668.82 488.154C661.326 467.563 649.849 448.65 635.045 432.495C620.241 416.34 602.4 403.259 582.54 394ZM563.62 568.92C552.727 592.307 539.887 608.4 525.1 617.2C510.313 626 494.733 626.567 478.36 618.9C461.987 611.26 452.2 598.96 449 582C445.8 565.04 449.713 544.673 460.74 520.9C471.66 497.5 484.567 481.553 499.46 473.06C514.353 464.567 529.973 464.14 546.32 471.78C562.72 479.42 572.447 491.667 575.5 508.52C578.553 525.373 574.593 545.507 563.62 568.92Z" />
  <circle class="cam-circle" cx="676" cy="756" r="140" />
  <path class="cam-icon" d="M630.629 697.667C611.299 697.667 595.629 713.337 595.629 732.667V779.334C595.629 798.664 611.299 814.334 630.629 814.334H677.296C696.626 814.334 712.296 798.664 712.296 779.334V732.667C712.296 713.337 696.626 697.667 677.296 697.667H630.629ZM743.602 715.96C742.119 716.366 740.706 717.001 739.408 717.846L723.962 727.987C720.829 730.043 718.962 733.535 718.962 737.279V774.722C718.962 778.466 720.829 781.957 723.962 784.013L739.408 794.154C740.706 795.001 742.119 795.636 743.602 796.043C748.572 797.405 754.142 796.464 758.408 793.121C762.674 789.778 765.629 784.298 765.629 778.18V733.821C765.629 727.706 762.674 722.226 758.408 718.881C754.142 715.537 748.572 714.596 743.602 715.96Z" />
</svg>