<svg role="img" viewBox="0 0 24 24" xmlns="http://www.w3.org/2000/svg"><title>17LIVE</title><path d="M 21.29,0.016 C 22.198,0.016 23.087,0.016 24,0.016 C 23.849,0.46 23.706,0.883 23.561,1.307 C 22.755,3.669 21.948,6.031 21.142,8.393 C 20.345,10.727 19.547,13.061 18.753,15.397 C 18.001,17.609 17.253,19.823 16.503,22.037 C 16.358,22.463 16.217,22.89 16.07,23.315 C 15.88,23.861 15.685,24.008 15.196,24 C 14.645,23.99 14.093,23.984 13.542,23.982 C 12.734,23.979 11.926,23.981 11.118,23.981 C 11.049,23.981 10.981,23.981 10.855,23.981 C 10.9,23.74 10.915,23.511 10.984,23.308 C 11.55,21.646 12.128,19.99 12.697,18.33 C 13.37,16.367 14.038,14.403 14.707,12.438 C 15.359,10.522 16.009,8.604 16.66,6.687 C 16.758,6.398 16.859,6.111 16.942,5.816 C 17.02,5.541 16.972,5.462 16.733,5.443 C 16.527,5.427 16.32,5.421 16.114,5.42 C 14.78,5.418 13.445,5.418 12.111,5.42 C 11.666,5.421 11.222,5.434 10.777,5.44 C 10.727,5.441 10.677,5.437 10.627,5.431 C 10.323,5.399 10.229,5.29 10.268,4.933 C 10.336,4.309 10.435,3.689 10.51,3.066 C 10.614,2.207 10.709,1.347 10.807,0.488 C 10.85,0.105 10.941,0.009 11.272,0.009 C 14.605,0.011 17.938,0.013 21.29,0.016 M 5.278,21.585 C 5.21,22.192 5.146,22.78 5.076,23.367 C 5.02,23.843 4.85,24.002 4.424,23.999 C 3.34,23.992 2.256,23.986 1.173,23.982 C 0.935,23.981 0.697,23.998 0.459,23.998 C 0.071,23.997 -0.036,23.878 0.01,23.424 C 0.091,22.63 0.197,21.838 0.291,21.046 C 0.498,19.306 0.703,17.566 0.91,15.827 C 1.195,13.434 1.482,11.042 1.767,8.649 C 1.933,7.254 2.098,5.859 2.263,4.464 C 2.415,3.18 2.563,1.895 2.716,0.61 C 2.775,0.111 2.92,-0.003 3.344,6.631e-05 C 4.66,0.01 5.975,0.002 7.29,0.002 C 7.359,0.002 7.428,-0.003 7.496,0.005 C 7.708,0.031 7.803,0.143 7.785,0.403 C 7.76,0.765 7.712,1.124 7.669,1.483 C 7.355,4.118 7.038,6.752 6.724,9.387 C 6.476,11.472 6.232,13.557 5.986,15.642 C 5.758,17.573 5.531,19.504 5.303,21.434 C 5.298,21.478 5.288,21.522 5.278,21.585"/></svg>