<svg role="img" viewBox="0 0 24 24" xmlns="http://www.w3.org/2000/svg"><title>Mixch</title><path d="M7.1 22.79L8.36 21.5L8.36 20.55L8.36 19.6L9.44 19.6C10.03 19.6 10.59 19.58 10.67 19.56C10.81 19.52 10.82 19.47 10.84 18.76C10.86 18.35 10.84 17.95 10.82 17.87C10.77 17.75 10.69 17.74 9.56 17.74L8.36 17.74L8.36 16.78L8.36 15.82L9.34 15.8L10.32 15.78L10.32 14.89L10.32 13.99L7.01 13.99L3.71 13.99L3.71 14.89L3.71 15.78L5.12 15.79L6.53 15.79L6.55 16.76L6.57 17.74L4.87 17.76L3.16 17.78L3.16 18.67L3.16 19.56L4.87 19.55L6.57 19.54L6.57 20.17L6.57 20.8L5.85 21.5C5.28 22.06 5.08 22.21 4.93 22.21C4.61 22.21 4.57 22.31 4.57 23.22L4.57 24.07L5.21 24.07L5.85 24.07L7.1 22.79ZM16.81 23.14L17.67 22.28L17.65 20.98C17.64 20.27 17.65 19.67 17.68 19.65C17.72 19.63 18.04 19.59 18.41 19.57L19.08 19.52L19.08 20.14C19.08 20.49 19.11 20.77 19.14 20.77C19.16 20.77 19.57 20.38 20.04 19.91L20.9 19.05L20.93 18.57C20.94 18.3 20.94 18.01 20.91 17.92L20.87 17.74L19.29 17.74C18.1 17.74 17.71 17.72 17.69 17.66C17.67 17.61 17.67 17.21 17.69 16.78C17.7 16.3 17.69 15.95 17.65 15.89C17.59 15.81 17.4 15.78 16.83 15.76C16.42 15.75 16.05 15.77 15.99 15.81C15.91 15.86 15.88 16.09 15.85 16.82L15.82 17.77L15.13 17.75C14.75 17.75 14.4 17.76 14.35 17.8C14.29 17.84 14.27 18.07 14.28 18.71L14.3 19.56L15.08 19.56C15.59 19.55 15.85 19.58 15.86 19.63C15.86 19.67 15.86 20.67 15.85 21.85C15.85 23.03 15.87 24 15.9 24C15.93 24 16.34 23.61 16.81 23.14ZM9.49 9.15L10.38 8.25L7.05 8.27L3.71 8.29L3.69 9.16L3.67 10.04L6.14 10.04L8.6 10.04L9.49 9.15ZM19.66 8.81L20.89 7.58L20.89 3.81L20.89 0.03L17.6 0.03L14.3 0.03L14.29 2.95C14.27 5.2 14.29 5.88 14.35 5.92C14.4 5.95 14.6 5.97 14.81 5.95C15.16 5.93 15.2 5.91 15.6 5.51L16.02 5.09L16.06 3.46L16.09 1.82L17.59 1.8L19.08 1.79L19.08 4.32L19.08 6.84L18.39 7.53L17.71 8.22L16.45 8.25L15.2 8.29L15.18 9.16L15.16 10.04L16.8 10.04L18.43 10.04L19.66 8.81ZM9.72 5.88C9.78 5.86 9.8 5.64 9.78 5L9.77 4.16L7.05 4.14C4.93 4.13 4.33 4.14 4.29 4.21C4.19 4.36 4.22 5.76 4.32 5.86C4.39 5.93 4.93 5.94 7.02 5.93C8.45 5.92 9.67 5.9 9.72 5.88ZM10.35 1.74C10.4 1.69 10.44 0.36 10.39 0.17L10.35 -0L7.03 0.02L3.71 0.03L3.69 0.89C3.68 1.43 3.7 1.76 3.75 1.79C3.82 1.84 10.29 1.79 10.35 1.74Z"/></svg>