<svg role="img" viewBox="0 0 24 24" xmlns="http://www.w3.org/2000/svg"><title>Nimo TV</title><path fill-rule="evenodd" d="M 23.991,18.819 C 23.924,21.243 22.194,23.41 19.961,23.877 A 5.94,6.416 0 0,1 18.846,23.991 C 14.209,23.991 9.575,24.019 4.939,23.977 C 1.757,23.949 -0.04,20.985 0.001,18.673 C 0.046,15.409 0.011,12.145 0.011,8.879 C 0.001,6.372 1.822,4.072 4.129,3.695 C 5.053,3.543 5.988,3.564 6.919,3.552 A 5.293,5.718 0 0,0 9.146,3.013 C 11.102,2.028 13.075,1.083 15.039,0.121 C 15.307,-0.01 15.574,-0.069 15.842,0.121 A 2.417,2.611 0 0,0 16.033,0.324 C 16.209,0.514 16.163,0.753 16.137,0.977 C 16.061,1.603 15.961,2.226 15.891,2.854 C 15.836,3.357 16.003,3.537 16.465,3.547 C 17.377,3.566 18.289,3.583 19.2,3.611 A 5.019,5.422 0 0,1 23.944,8.166 C 23.97,8.355 23.981,8.557 24,8.752 A 0.466,0.503 0 0,0 23.97,9.04 Q 23.97,13.785 23.97,18.529 A 0.466,0.503 0 0,0 23.991,18.819 M 10.831,12.506 A 1.151,1.243 0 0,1 12.351,12.445 C 13.384,13.09 14.477,13.646 15.448,14.398 A 1.044,1.127 0 0,1 15.306,16.235 C 14.252,16.961 13.157,17.614 12.047,18.231 C 11.418,18.611 10.466,18.015 10.482,17.22 C 10.457,15.8 10.396,14.373 10.52,12.957 C 10.599,12.836 10.754,12.618 10.831,12.506 M 8.041,9.433 C 9.591,8.873 10.264,11.697 8.637,11.984 C 7.133,12.454 6.501,9.771 8.041,9.433 M 15.251,9.8 C 15.727,9.509 16.363,8.777 16.832,9.498 C 16.99,10.166 16.33,10.397 15.954,10.737 C 16.305,11.088 17.073,11.367 16.808,12.046 C 16.022,12.733 15.227,11.551 14.578,11.122 C 14.044,10.547 14.895,10.103 15.251,9.8"/></svg>