<svg role="img" viewBox="0 0.975 24 22.051" xmlns="http://www.w3.org/2000/svg"><title>Mirrativ</title><path d="M 8.132,3.932 C 8.308,3.962 8.485,3.987 8.66,4.021 C 8.852,4.059 8.93,3.89 9.048,3.805 C 9.509,3.473 9.951,3.113 10.419,2.79 C 10.863,2.483 11.321,2.195 11.789,1.925 C 12.173,1.703 12.575,1.512 12.978,1.324 C 13.244,1.2 13.524,1.105 13.791,0.986 C 14.089,0.975 14.393,0.975 14.712,0.975 C 14.777,1.019 14.826,1.064 14.874,1.127 C 14.497,1.462 14.123,1.78 13.747,2.096 C 12.991,2.731 12.234,3.366 11.477,4 C 10.809,4.561 10.139,5.121 9.471,5.683 C 8.644,6.379 7.818,7.078 6.99,7.774 C 6.246,8.399 5.499,9.021 4.754,9.645 C 3.861,10.394 2.967,11.142 2.077,11.893 C 1.91,12.033 1.758,12.19 1.599,12.339 C 1.515,12.22 1.392,12.112 1.356,11.98 C 1.268,11.666 1.218,11.34 1.16,11.018 C 1.109,10.731 1.067,10.441 1.022,10.152 C 1.013,10.097 1.009,10.04 1.015,9.967 C 1.325,9.704 1.625,9.461 1.921,9.213 C 3.035,8.281 4.145,7.345 5.259,6.412 C 6.172,5.648 7.09,4.888 8.002,4.122 C 8.059,4.075 8.089,3.996 8.132,3.932 z M 6.968,19.634 C 6.759,19.307 6.55,18.979 6.347,18.632 C 6.528,18.463 6.702,18.313 6.878,18.165 C 8.006,17.216 9.134,16.267 10.262,15.319 C 10.998,14.7 11.734,14.081 12.47,13.463 C 13.299,12.767 14.128,12.072 14.957,11.377 C 15.657,10.789 16.358,10.201 17.059,9.614 C 17.648,9.12 18.237,8.628 18.826,8.134 C 19.522,7.549 20.219,6.965 20.912,6.376 C 21.098,6.218 21.27,6.045 21.448,5.879 C 21.652,5.899 21.856,5.914 22.059,5.939 C 22.379,5.978 22.698,6.023 23.018,6.066 C 23.032,6.068 23.045,6.079 23.066,6.103 C 23.03,6.169 22.991,6.226 22.94,6.269 C 22.725,6.451 22.506,6.628 22.29,6.809 C 21.235,7.696 20.181,8.584 19.126,9.47 C 18.406,10.075 17.685,10.677 16.967,11.283 C 16.78,11.44 16.604,11.61 16.423,11.773 C 16.049,11.838 15.672,11.886 15.303,11.973 C 14.813,12.088 14.347,12.27 13.939,12.58 C 13.57,12.862 13.249,13.188 13,13.578 C 12.827,13.85 12.654,14.126 12.522,14.419 C 12.41,14.668 12.357,14.944 12.264,15.223 C 12.195,15.266 12.133,15.285 12.086,15.324 C 11.541,15.78 10.998,16.238 10.454,16.695 C 9.694,17.333 8.933,17.97 8.174,18.609 C 7.771,18.949 7.37,19.292 6.968,19.634 z M 21.437,5.873 C 21.27,6.045 21.098,6.218 20.912,6.376 C 20.219,6.965 19.522,7.549 18.826,8.134 C 18.237,8.628 17.648,9.12 17.059,9.614 C 16.358,10.201 15.657,10.789 14.957,11.377 C 14.128,12.072 13.299,12.767 12.47,13.463 C 11.734,14.081 10.998,14.7 10.262,15.319 C 9.134,16.267 8.006,17.216 6.878,18.165 C 6.702,18.313 6.528,18.463 6.347,18.62 C 6.258,18.496 6.164,18.37 6.099,18.229 C 6.001,18.019 5.924,17.799 5.847,17.567 C 5.914,17.516 5.976,17.486 6.028,17.443 C 6.987,16.635 7.944,15.824 8.904,15.016 C 9.747,14.306 10.593,13.598 11.438,12.889 C 12.415,12.069 13.392,11.25 14.369,10.43 C 15.35,9.606 16.329,8.781 17.311,7.959 C 18.104,7.294 18.902,6.635 19.694,5.969 C 19.799,5.88 19.88,5.763 19.972,5.659 C 20.225,5.69 20.479,5.718 20.732,5.754 C 20.964,5.787 21.194,5.829 21.437,5.873 z M 19.959,5.657 C 19.88,5.763 19.799,5.88 19.694,5.969 C 18.902,6.635 18.104,7.294 17.311,7.959 C 16.329,8.781 15.35,9.606 14.369,10.43 C 13.392,11.25 12.415,12.069 11.438,12.889 C 10.593,13.598 9.747,14.306 8.904,15.016 C 7.944,15.824 6.987,16.635 6.028,17.443 C 5.976,17.486 5.914,17.516 5.846,17.555 C 5.764,17.382 5.685,17.209 5.624,17.029 C 5.552,16.818 5.496,16.602 5.444,16.372 C 5.705,16.159 5.959,15.966 6.202,15.762 C 6.968,15.121 7.728,14.475 8.492,13.832 C 9.176,13.257 9.863,12.685 10.548,12.11 C 11.308,11.472 12.068,10.833 12.829,10.195 C 13.426,9.695 14.025,9.197 14.621,8.695 C 15.329,8.1 16.035,7.503 16.743,6.907 C 17.322,6.418 17.901,5.93 18.481,5.441 C 18.724,5.481 18.967,5.523 19.211,5.558 C 19.455,5.594 19.701,5.623 19.959,5.657 z M 1.61,12.344 C 1.758,12.19 1.91,12.033 2.077,11.893 C 2.967,11.142 3.861,10.394 4.754,9.645 C 5.499,9.021 6.246,8.399 6.99,7.774 C 7.818,7.078 8.644,6.379 9.471,5.683 C 10.139,5.121 10.809,4.561 11.477,4 C 12.234,3.366 12.991,2.731 13.747,2.096 C 14.123,1.78 14.497,1.462 14.879,1.137 C 14.976,1.226 15.093,1.309 15.15,1.423 C 15.276,1.675 15.372,1.942 15.475,2.224 C 14.405,3.14 13.343,4.036 12.278,4.931 C 11.486,5.596 10.689,6.258 9.897,6.924 C 8.744,7.892 7.595,8.865 6.442,9.833 C 5.562,10.573 4.678,11.309 3.799,12.05 C 3.684,12.146 3.588,12.263 3.483,12.37 C 3.012,12.393 2.54,12.424 2.069,12.433 C 1.92,12.436 1.77,12.379 1.61,12.344 z M 16.406,4.34 C 16.538,4.572 16.661,4.809 16.806,5.032 C 16.864,5.121 16.973,5.176 17.067,5.259 C 16.997,5.354 16.925,5.444 16.84,5.519 C 16.696,5.647 16.541,5.764 16.394,5.889 C 15.807,6.385 15.224,6.884 14.636,7.378 C 14.033,7.886 13.425,8.39 12.821,8.896 C 12.124,9.481 11.431,10.068 10.733,10.651 C 10.24,11.062 9.737,11.463 9.246,11.877 C 8.702,12.334 8.169,12.804 7.627,13.263 C 6.929,13.853 6.228,14.439 5.525,15.024 C 5.43,15.103 5.319,15.164 5.216,15.233 C 5.173,14.771 5.129,14.309 5.098,13.83 C 5.175,13.769 5.243,13.729 5.303,13.679 C 5.728,13.324 6.15,12.965 6.575,12.609 C 7.26,12.034 7.946,11.461 8.631,10.886 C 9.392,10.248 10.153,9.609 10.914,8.97 C 11.582,8.409 12.252,7.848 12.921,7.287 C 13.686,6.644 14.451,6.003 15.214,5.359 C 15.614,5.022 16.009,4.68 16.406,4.34 z M 8.118,3.93 C 8.089,3.996 8.059,4.075 8.002,4.122 C 7.09,4.888 6.172,5.648 5.259,6.412 C 4.145,7.345 3.035,8.281 1.921,9.213 C 1.625,9.461 1.325,9.704 1.017,9.953 C 0.953,9.676 0.894,9.396 0.847,9.115 C 0.788,8.766 0.737,8.416 0.685,8.067 C 0.652,7.838 0.624,7.609 0.601,7.36 C 1.077,6.947 1.547,6.556 2.015,6.163 C 2.915,5.406 3.815,4.651 4.711,3.89 C 4.828,3.79 4.92,3.661 5.024,3.546 C 5.236,3.56 5.45,3.565 5.662,3.589 C 6.034,3.633 6.406,3.686 6.777,3.739 C 7.057,3.778 7.335,3.824 7.615,3.865 C 7.778,3.888 7.941,3.907 8.118,3.93 z M 3.498,12.372 C 3.588,12.263 3.684,12.146 3.799,12.05 C 4.678,11.309 5.562,10.573 6.442,9.833 C 7.595,8.865 8.744,7.892 9.897,6.924 C 10.689,6.258 11.486,5.596 12.278,4.931 C 13.343,4.036 14.405,3.14 15.476,2.236 C 15.533,2.319 15.591,2.407 15.631,2.503 C 15.742,2.769 15.846,3.038 15.944,3.321 C 15.862,3.387 15.785,3.432 15.717,3.489 C 14.769,4.285 13.823,5.085 12.874,5.881 C 12.13,6.506 11.382,7.127 10.637,7.752 C 9.749,8.498 8.864,9.248 7.976,9.995 C 7.14,10.698 6.304,11.4 5.466,12.1 C 5.358,12.19 5.237,12.263 5.122,12.344 C 5.084,12.335 5.047,12.32 5.01,12.319 C 4.976,12.319 4.942,12.342 4.907,12.343 C 4.442,12.354 3.977,12.364 3.498,12.372 z M 5.12,12.358 C 5.237,12.263 5.358,12.19 5.466,12.1 C 6.304,11.4 7.14,10.698 7.976,9.995 C 8.864,9.248 9.749,8.498 10.637,7.752 C 11.382,7.127 12.13,6.506 12.874,5.881 C 13.823,5.085 14.769,4.285 15.717,3.489 C 15.785,3.432 15.862,3.387 15.945,3.332 C 16.102,3.659 16.249,3.99 16.401,4.33 C 16.009,4.68 15.614,5.022 15.214,5.359 C 14.451,6.003 13.686,6.644 12.921,7.287 C 12.252,7.848 11.582,8.409 10.914,8.97 C 10.153,9.609 9.392,10.248 8.631,10.886 C 7.946,11.461 7.26,12.034 6.575,12.609 C 6.15,12.965 5.728,13.324 5.303,13.679 C 5.243,13.729 5.175,13.769 5.1,13.816 C 5.099,13.338 5.109,12.855 5.12,12.358 z M 13.345,23.017 C 13.018,22.986 12.687,22.971 12.363,22.918 C 12.067,22.869 11.778,22.779 11.477,22.695 C 11.523,22.621 11.57,22.55 11.632,22.496 C 11.894,22.271 12.159,22.051 12.424,21.829 C 13.23,21.156 14.038,20.484 14.842,19.807 C 14.93,19.732 14.996,19.63 15.073,19.541 C 15.501,19.546 15.908,19.456 16.296,19.271 C 16.91,18.979 17.299,18.493 17.51,17.858 C 17.548,17.743 17.541,17.614 17.568,17.475 C 17.644,17.426 17.715,17.401 17.769,17.357 C 18.233,16.971 18.691,16.579 19.157,16.195 C 19.328,16.054 19.514,15.929 19.693,15.797 C 19.765,15.973 19.859,16.142 19.904,16.324 C 19.976,16.62 20.014,16.924 20.068,17.224 C 20.073,17.254 20.086,17.282 20.083,17.328 C 20.027,17.37 19.977,17.39 19.938,17.423 C 19.507,17.787 19.079,18.154 18.647,18.518 C 17.667,19.341 16.685,20.164 15.704,20.986 C 14.963,21.607 14.219,22.225 13.479,22.847 C 13.425,22.893 13.389,22.96 13.345,23.017 z M 13.36,23.019 C 13.389,22.96 13.425,22.893 13.479,22.847 C 14.219,22.225 14.963,21.607 15.704,20.986 C 16.685,20.164 17.667,19.341 18.647,18.518 C 19.079,18.154 19.507,17.787 19.938,17.423 C 19.977,17.39 20.027,17.37 20.082,17.341 C 20.129,17.812 20.079,18.284 19.964,18.74 C 19.781,19.467 19.451,20.127 18.972,20.713 C 18.563,21.214 18.095,21.649 17.544,21.981 C 17.16,22.212 16.75,22.408 16.335,22.576 C 15.986,22.716 15.614,22.799 15.25,22.896 C 14.691,23.044 14.118,23.028 13.547,23.022 C 13.489,23.022 13.432,23.022 13.36,23.019 z M 12.241,16.709 C 12.294,16.922 12.341,17.136 12.403,17.346 C 12.551,17.848 12.784,18.303 13.172,18.667 C 13.184,18.679 13.183,18.705 13.183,18.745 C 12.95,18.969 12.726,19.178 12.493,19.375 C 12.136,19.677 11.769,19.967 11.412,20.269 C 10.895,20.706 10.381,21.146 9.869,21.589 C 9.764,21.68 9.674,21.787 9.576,21.886 C 9.408,21.783 9.232,21.692 9.074,21.575 C 8.675,21.276 8.283,20.967 7.89,20.659 C 7.819,20.603 7.758,20.534 7.7,20.456 C 7.744,20.418 7.781,20.398 7.812,20.372 C 8.508,19.786 9.202,19.198 9.898,18.612 C 10.534,18.077 11.169,17.541 11.809,17.011 C 11.944,16.899 12.096,16.809 12.241,16.709 z M 18.468,5.439 C 17.901,5.93 17.322,6.418 16.743,6.907 C 16.035,7.503 15.329,8.1 14.621,8.695 C 14.025,9.197 13.426,9.695 12.829,10.195 C 12.068,10.833 11.308,11.472 10.548,12.11 C 9.863,12.685 9.176,13.257 8.492,13.832 C 7.728,14.475 6.968,15.121 6.202,15.762 C 5.959,15.966 5.705,16.159 5.446,16.36 C 5.382,16.111 5.328,15.858 5.286,15.588 C 5.728,15.214 6.159,14.858 6.588,14.499 C 7.289,13.912 7.988,13.323 8.689,12.735 C 9.282,12.238 9.877,11.743 10.469,11.245 C 11.245,10.592 12.017,9.934 12.793,9.28 C 13.344,8.816 13.9,8.355 14.453,7.892 C 15.274,7.204 16.097,6.517 16.915,5.825 C 17.105,5.664 17.278,5.485 17.46,5.314 C 17.685,5.342 17.911,5.37 18.137,5.398 C 18.243,5.411 18.35,5.423 18.468,5.439 z M 5.018,3.535 C 4.92,3.661 4.828,3.79 4.711,3.89 C 3.815,4.651 2.915,5.406 2.015,6.163 C 1.547,6.556 1.077,6.947 0.6,7.346 C 0.551,7.139 0.504,6.926 0.471,6.71 C 0.403,6.274 0.345,5.836 0.279,5.399 C 0.239,5.135 0.186,4.873 0.152,4.609 C 0.095,4.155 0.039,3.7 0.001,3.244 C -0.017,3.018 0.162,2.939 0.445,2.928 C 0.696,2.919 0.95,2.962 1.201,2.992 C 1.492,3.026 1.781,3.071 2.072,3.11 C 2.387,3.153 2.703,3.195 3.019,3.236 C 3.264,3.268 3.509,3.297 3.754,3.33 C 4.08,3.375 4.405,3.42 4.731,3.468 C 4.825,3.482 4.918,3.505 5.018,3.535 z M 16.547,15.928 C 16.262,15.908 15.996,15.949 15.757,16.129 C 15.517,16.309 15.479,16.621 15.6,16.832 C 15.684,16.98 15.816,17.106 15.947,17.219 C 16.056,17.314 16.077,17.437 16.069,17.552 C 16.057,17.751 15.96,17.914 15.762,17.996 C 15.264,18.2 14.688,17.915 14.386,17.539 C 14.081,17.16 13.957,16.715 13.979,16.241 C 14.002,15.762 14.136,15.314 14.439,14.917 C 14.735,14.529 15.107,14.273 15.557,14.1 C 16.109,13.888 16.675,13.885 17.25,13.942 C 17.667,13.984 18.05,14.12 18.409,14.34 C 17.998,14.692 17.587,15.029 17.18,15.371 C 16.965,15.552 16.758,15.742 16.547,15.928 z M 16.437,11.775 C 16.604,11.61 16.78,11.44 16.967,11.283 C 17.685,10.677 18.406,10.075 19.126,9.47 C 20.181,8.584 21.235,7.696 22.29,6.809 C 22.506,6.628 22.725,6.451 22.94,6.269 C 22.991,6.226 23.03,6.169 23.078,6.109 C 23.273,6.128 23.466,6.151 23.656,6.188 C 24.036,6.262 24.052,6.514 23.939,6.82 C 23.925,6.858 23.906,6.894 23.869,6.94 C 23.791,6.983 23.729,7.012 23.677,7.054 C 23.454,7.236 23.234,7.421 23.014,7.605 C 22.416,8.104 21.818,8.602 21.222,9.103 C 20.437,9.761 19.653,10.419 18.873,11.082 C 18.676,11.25 18.495,11.438 18.307,11.616 C 18.248,11.629 18.188,11.647 18.128,11.652 C 17.616,11.695 17.103,11.736 16.591,11.777 C 16.545,11.781 16.498,11.778 16.437,11.775 z M 18.322,11.618 C 18.495,11.438 18.676,11.25 18.873,11.082 C 19.653,10.419 20.437,9.761 21.222,9.103 C 21.818,8.602 22.416,8.104 23.014,7.605 C 23.234,7.421 23.454,7.236 23.677,7.054 C 23.729,7.012 23.791,6.983 23.859,6.946 C 23.757,7.25 23.644,7.557 23.529,7.863 C 23.38,8.261 23.233,8.66 23.077,9.055 C 22.918,9.458 22.747,9.855 22.587,10.257 C 22.503,10.47 22.434,10.688 22.356,10.903 C 22.226,11.264 22.008,11.414 21.613,11.434 C 21.059,11.462 20.505,11.495 19.951,11.528 C 19.625,11.547 19.3,11.571 18.974,11.59 C 18.762,11.602 18.549,11.61 18.322,11.618 z M 9.586,21.892 C 9.674,21.787 9.764,21.68 9.869,21.589 C 10.381,21.146 10.895,20.706 11.412,20.269 C 11.769,19.967 12.136,19.677 12.493,19.375 C 12.726,19.178 12.95,18.969 13.184,18.757 C 13.249,18.782 13.314,18.809 13.365,18.852 C 13.751,19.172 14.183,19.394 14.681,19.475 C 14.803,19.495 14.924,19.516 15.059,19.539 C 14.996,19.63 14.93,19.732 14.842,19.807 C 14.038,20.484 13.23,21.156 12.424,21.829 C 12.159,22.051 11.894,22.271 11.632,22.496 C 11.57,22.55 11.523,22.621 11.464,22.693 C 10.823,22.509 10.218,22.241 9.631,21.928 C 9.617,21.921 9.608,21.907 9.586,21.892 z M 12.243,16.696 C 12.096,16.809 11.944,16.899 11.809,17.011 C 11.169,17.541 10.534,18.077 9.898,18.612 C 9.202,19.198 8.508,19.786 7.812,20.372 C 7.781,20.398 7.744,20.418 7.699,20.445 C 7.58,20.343 7.464,20.245 7.365,20.132 C 7.229,19.978 7.106,19.814 6.973,19.644 C 7.37,19.292 7.771,18.949 8.174,18.609 C 8.933,17.97 9.694,17.333 10.454,16.695 C 10.998,16.238 11.541,15.78 12.086,15.324 C 12.133,15.285 12.195,15.266 12.261,15.235 C 12.251,15.499 12.219,15.763 12.213,16.029 C 12.207,16.247 12.233,16.465 12.243,16.696 z M 16.554,15.938 C 16.758,15.742 16.965,15.552 17.18,15.371 C 17.587,15.029 17.998,14.692 18.418,14.347 C 18.885,14.597 19.244,14.953 19.498,15.411 C 19.564,15.531 19.626,15.653 19.691,15.786 C 19.514,15.929 19.328,16.054 19.157,16.195 C 18.691,16.579 18.233,16.971 17.769,17.357 C 17.715,17.401 17.644,17.426 17.57,17.462 C 17.576,17.132 17.516,16.815 17.351,16.529 C 17.175,16.223 16.922,16.008 16.554,15.938 z M 17.447,5.312 C 17.278,5.485 17.105,5.664 16.915,5.825 C 16.097,6.517 15.274,7.204 14.453,7.892 C 13.9,8.355 13.344,8.816 12.793,9.28 C 12.017,9.934 11.245,10.592 10.469,11.245 C 9.877,11.743 9.282,12.238 8.689,12.735 C 7.988,13.323 7.289,13.912 6.588,14.499 C 6.159,14.858 5.728,15.214 5.288,15.575 C 5.257,15.472 5.234,15.366 5.214,15.246 C 5.319,15.164 5.43,15.103 5.525,15.024 C 6.228,14.439 6.929,13.853 7.627,13.263 C 8.169,12.804 8.702,12.334 9.246,11.877 C 9.737,11.463 10.24,11.062 10.733,10.651 C 11.431,10.068 12.124,9.481 12.821,8.896 C 13.425,8.39 14.033,7.886 14.636,7.378 C 15.224,6.884 15.807,6.385 16.394,5.889 C 16.541,5.764 16.696,5.647 16.84,5.519 C 16.925,5.444 16.997,5.354 17.079,5.261 C 17.2,5.271 17.317,5.29 17.447,5.312 z"/></svg>