<svg role="img" viewBox="0 0 24 24" xmlns="http://www.w3.org/2000/svg"><title>VK Live</title><path fill-rule="evenodd" d="M 0,11.52 C 0,6.089 0,3.374 1.687,1.687 C 3.374,0 6.089,0 11.52,0 L 12.48,0 C 17.911,0 20.626,0 22.313,1.687 C 24,3.374 24,6.089 24,11.52 L 24,12.48 C 24,17.911 24,20.626 22.313,22.313 C 20.626,24 17.911,24 12.48,24 L 11.52,24 C 6.089,24 3.374,24 1.687,22.313 C 0,20.626 0,17.911 0,12.48 L 0,11.52 M 16.934,9.866 C 18.149,10.567 18.754,10.918 18.958,11.374 C 19.135,11.772 19.135,12.228 18.958,12.626 C 18.754,13.085 18.146,13.433 16.934,14.134 L 13.61,16.054 C 12.396,16.754 11.791,17.105 11.292,17.052 C 10.858,17.006 10.464,16.778 10.207,16.426 C 9.912,16.02 9.912,15.319 9.912,13.92 L 9.912,10.08 C 9.912,8.678 9.912,7.978 10.207,7.574 C 10.464,7.222 10.858,6.994 11.292,6.948 C 11.789,6.895 12.396,7.246 13.61,7.946 L 16.934,9.866"/></svg>