<svg role="img" viewBox="0 0 24 24" xmlns="http://www.w3.org/2000/svg"><path fill-rule="evenodd" d="M 0,12 A 12,12 0 1,0 24,12 A 12,12 0 1,0 0,12 Z M 20.612,5.929 C 20.665,6.093 20.657,6.23 20.642,6.401 C 20.637,6.459 20.632,6.517 20.626,6.576 C 20.621,6.641 20.615,6.705 20.609,6.769 C 20.603,6.836 20.597,6.904 20.591,6.972 C 20.575,7.155 20.558,7.339 20.542,7.523 C 20.524,7.715 20.507,7.907 20.49,8.1 C 20.462,8.423 20.433,8.746 20.404,9.069 C 20.366,9.484 20.329,9.898 20.293,10.312 C 20.261,10.669 20.229,11.025 20.197,11.382 C 20.187,11.496 20.177,11.611 20.167,11.725 C 20.151,11.905 20.135,12.085 20.118,12.265 C 20.112,12.331 20.107,12.397 20.101,12.463 C 20.093,12.554 20.084,12.644 20.076,12.734 C 20.069,12.81 20.069,12.81 20.063,12.887 C 20.046,13.047 20.024,13.206 20,13.365 C 19.542,13.513 19.081,13.649 18.618,13.779 C 18.565,13.794 18.513,13.809 18.459,13.824 C 18.41,13.838 18.361,13.852 18.311,13.866 C 18.245,13.884 18.245,13.884 18.177,13.903 C 18.071,13.929 18.071,13.929 17.976,13.929 C 17.794,13.288 17.653,12.638 17.514,11.986 C 17.432,11.603 17.349,11.221 17.26,10.84 C 17.252,10.803 17.243,10.767 17.234,10.729 C 17.194,10.555 17.153,10.38 17.111,10.206 C 17.012,9.786 16.943,9.37 16.894,8.941 C 16.889,9.009 16.889,9.009 16.883,9.077 C 16.775,10.444 16.625,11.797 16.427,13.153 C 16.421,13.195 16.415,13.236 16.408,13.279 C 16.397,13.357 16.386,13.434 16.374,13.512 C 16.34,13.744 16.315,13.975 16.295,14.209 C 16.282,14.306 16.282,14.306 16.235,14.4 C 16.136,14.436 16.035,14.468 15.933,14.497 C 15.887,14.51 15.887,14.51 15.84,14.524 C 15.774,14.543 15.708,14.562 15.642,14.58 C 15.543,14.608 15.445,14.637 15.347,14.665 C 14.955,14.778 14.563,14.878 14.165,14.965 C 14.031,14.35 13.909,13.737 13.82,13.114 C 13.776,12.805 13.72,12.498 13.664,12.191 C 13.636,12.031 13.608,11.871 13.579,11.712 C 13.574,11.679 13.568,11.647 13.562,11.613 C 13.496,11.24 13.431,10.867 13.367,10.493 C 13.334,10.306 13.301,10.119 13.269,9.932 C 13.229,9.707 13.19,9.482 13.152,9.257 C 13.137,9.173 13.122,9.089 13.107,9.004 C 13.087,8.888 13.067,8.772 13.047,8.656 C 13.041,8.622 13.035,8.588 13.029,8.553 C 12.997,8.366 12.986,8.189 12.988,8 C 13.194,7.946 13.4,7.893 13.606,7.839 C 13.676,7.821 13.747,7.803 13.817,7.784 C 13.917,7.758 14.018,7.732 14.119,7.706 C 14.15,7.698 14.182,7.689 14.214,7.681 C 14.436,7.624 14.436,7.624 14.541,7.624 C 14.623,7.998 14.675,8.373 14.722,8.753 C 14.73,8.817 14.738,8.88 14.746,8.944 C 14.767,9.112 14.787,9.281 14.808,9.449 C 14.821,9.553 14.833,9.657 14.846,9.761 C 14.969,10.757 15.081,11.752 15.153,12.753 C 15.156,12.724 15.16,12.695 15.163,12.665 C 15.198,12.361 15.233,12.056 15.268,11.751 C 15.281,11.638 15.295,11.525 15.308,11.412 C 15.498,9.76 15.498,9.76 15.578,9.108 C 15.582,9.075 15.586,9.043 15.59,9.009 C 15.623,8.745 15.623,8.745 15.639,8.615 C 15.685,8.243 15.727,7.873 15.753,7.499 C 15.765,7.388 15.765,7.388 15.812,7.247 C 15.917,7.204 15.917,7.204 16.058,7.168 C 16.109,7.154 16.16,7.141 16.213,7.127 C 16.268,7.113 16.323,7.099 16.379,7.085 C 16.435,7.071 16.49,7.057 16.547,7.042 C 16.71,7 16.872,6.959 17.035,6.918 C 17.118,6.897 17.201,6.875 17.284,6.854 C 17.452,6.812 17.62,6.771 17.788,6.729 C 17.794,6.758 17.8,6.786 17.805,6.815 C 17.971,7.647 18.139,8.478 18.309,9.309 C 18.466,10.08 18.623,10.851 18.776,11.624 C 18.777,11.597 18.778,11.57 18.779,11.543 C 18.835,9.827 18.914,8.114 19.012,6.4 C 19.243,6.321 19.473,6.245 19.71,6.185 C 19.781,6.167 19.781,6.167 19.853,6.148 C 19.9,6.136 19.948,6.124 19.997,6.112 C 20.094,6.087 20.19,6.063 20.287,6.038 C 20.35,6.022 20.35,6.022 20.414,6.005 C 20.519,5.98 20.519,5.98 20.612,5.929 M 7.341,9.553 C 7.4,10.164 7.413,10.778 7.434,11.391 C 7.438,11.511 7.442,11.631 7.446,11.751 C 7.455,12.002 7.464,12.253 7.472,12.504 C 7.482,12.791 7.492,13.078 7.502,13.365 C 7.512,13.644 7.521,13.924 7.531,14.203 C 7.535,14.321 7.539,14.438 7.543,14.555 C 7.569,15.288 7.582,16.02 7.576,16.753 C 7.397,16.807 7.218,16.861 7.038,16.915 C 6.988,16.93 6.938,16.945 6.886,16.961 C 6.596,17.047 6.325,17.107 6.024,17.129 C 5.853,16.764 5.697,16.394 5.547,16.02 C 5.525,15.965 5.503,15.91 5.48,15.853 C 5.434,15.737 5.387,15.621 5.341,15.506 C 5.294,15.388 5.247,15.271 5.2,15.154 C 4.518,13.458 4.518,13.458 4.518,13.176 C 4.502,13.192 4.487,13.208 4.471,13.224 C 4.475,13.35 4.482,13.475 4.491,13.602 C 4.495,13.661 4.495,13.661 4.499,13.722 C 4.509,13.854 4.518,13.985 4.528,14.117 C 4.534,14.208 4.541,14.3 4.547,14.391 C 4.564,14.632 4.581,14.873 4.598,15.114 C 4.626,15.499 4.653,15.884 4.68,16.269 C 4.689,16.404 4.699,16.539 4.709,16.673 C 4.715,16.756 4.72,16.839 4.726,16.921 C 4.729,16.959 4.732,16.996 4.734,17.035 C 4.746,17.193 4.753,17.348 4.753,17.506 C 4.573,17.559 4.392,17.612 4.212,17.665 C 4.161,17.68 4.11,17.695 4.058,17.71 C 4.008,17.724 3.959,17.739 3.907,17.754 C 3.862,17.767 3.817,17.781 3.77,17.794 C 3.596,17.843 3.422,17.886 3.247,17.929 C 3.18,16.672 3.127,15.414 3.086,14.155 C 3.078,13.923 3.07,13.691 3.062,13.46 C 2.999,11.624 2.999,11.624 3.012,10.729 C 3.191,10.676 3.371,10.623 3.55,10.571 C 3.6,10.556 3.651,10.541 3.702,10.525 C 3.988,10.441 4.273,10.367 4.565,10.306 C 4.835,10.882 5.075,11.47 5.295,12.066 C 5.426,12.42 5.568,12.769 5.709,13.119 C 5.849,13.466 5.984,13.815 6.118,14.165 C 6.114,14.12 6.114,14.12 6.111,14.074 C 6.087,13.755 6.063,13.437 6.04,13.118 C 6.031,13 6.022,12.882 6.013,12.764 C 5.866,10.794 5.866,10.794 5.882,9.929 C 6.083,9.876 6.283,9.822 6.483,9.769 C 6.551,9.75 6.619,9.732 6.687,9.714 C 6.785,9.688 6.883,9.661 6.981,9.635 C 7.04,9.62 7.098,9.604 7.159,9.588 C 7.294,9.553 7.294,9.553 7.341,9.553 M 12.179,8.832 C 12.625,9.248 12.675,9.8 12.709,10.374 C 12.711,10.404 12.713,10.435 12.715,10.467 C 12.76,11.197 12.786,11.927 12.8,12.659 C 12.801,12.694 12.801,12.728 12.802,12.764 C 12.806,12.98 12.809,13.197 12.811,13.413 C 12.811,13.482 12.812,13.55 12.813,13.619 C 12.822,14.188 12.788,14.738 12.424,15.2 C 12.402,15.228 12.38,15.256 12.358,15.285 C 11.852,15.861 10.901,16.089 10.168,16.153 C 9.713,16.171 9.305,16.075 8.944,15.788 C 8.422,15.277 8.413,14.478 8.394,13.793 C 8.392,13.732 8.39,13.671 8.388,13.608 C 8.384,13.478 8.38,13.349 8.376,13.22 C 8.372,13.058 8.367,12.896 8.361,12.734 C 8.342,12.121 8.326,11.507 8.322,10.893 C 8.322,10.848 8.321,10.803 8.321,10.756 C 8.32,10.235 8.449,9.764 8.8,9.365 C 9.182,9.002 9.621,8.812 10.121,8.671 C 10.156,8.661 10.191,8.651 10.227,8.641 C 10.887,8.463 11.61,8.392 12.179,8.832"/></svg>